<?xml version="1.0" encoding="UTF-8" standalone="no"?><!DOCTYPE svg PUBLIC "-//W3C//DTD SVG 1.1//EN" "http://www.w3.org/Graphics/SVG/1.1/DTD/svg11.dtd"><svg width="100%" height="100%" viewBox="0 0 250 250" version="1.1" xmlns="http://www.w3.org/2000/svg" xmlns:xlink="http://www.w3.org/1999/xlink" xml:space="preserve" xmlns:serif="http://www.serif.com/" style="fill-rule:evenodd;clip-rule:evenodd;stroke-linejoin:round;stroke-miterlimit:2;"><rect id="Artboard2" x="0" y="0" width="250" height="250" style="fill:none;"/><clipPath id="_clip1"><rect x="0" y="0" width="250" height="250"/></clipPath><g clip-path="url(#_clip1)"><path id="border-jaune" d="M11.795,5.433c29.223,0 61.529,7.135 90.144,3.442c23.985,-3.095 52.502,0 77.667,0c14.864,0 27.25,-4.115 41.533,-4.115c3.512,0 14.317,-1.2 16.39,0.673c0.905,0.818 0,13.882 0,15.214c0,7.526 1.018,8.944 -1.49,15.741c-2.203,5.968 1.49,23.567 1.49,29.917c0,14.516 -0.745,28.648 -0.745,43.068c0,6.253 -1.87,15.825 -0.745,22.651c0.172,1.046 0.414,2.027 0.745,2.921c4.14,11.219 0.745,36.614 0.745,48.804c0,6.774 2.901,16.26 5.214,22.529c0.68,1.841 1.165,29.904 0,30.955c-2.128,1.923 -33.678,-2.306 -38.785,0c-8.768,3.961 -50.088,-1.969 -55.829,-0.672c-13.814,3.119 -31.445,1.345 -46.19,1.345c-19.49,0 -38.666,-0.673 -58.109,-0.673c-6.827,0 -12.616,0.673 -19.37,0.673c-1.692,0 -13.41,0.225 -13.41,0c0,-20.986 5.915,-50.907 1.49,-70.659c-4.306,-19.218 -2.094,-49.458 -1.49,-71.333c0.309,-11.203 0.991,-24.553 -3.725,-34.32c-2.981,-6.172 0,-32.695 0,-40.947c0,-4.06 4.47,-15.214 4.47,-15.214Z" style="fill:#fff;"/><path d="M13.267,0.075c28.154,0.267 56.161,6.116 84.553,3.318c3.762,-0.37 7.505,-0.914 11.278,-1.214c27.445,-2.18 55.604,3.254 82.166,-0.008c10.141,-1.245 20.053,-1.922 30.438,-2.075c0.23,-0.005 9.256,-0.021 9.487,-0.021c6.973,0.011 9.4,-0.051 12.337,3.144c3.734,4.061 0.676,11.456 0.421,17.717c0,0 0.436,5.287 0.139,9.721c-0.201,3.001 -1.21,5.854 -2.037,8.74c-0.672,2.44 -0.32,5.241 -0.114,7.959c0.571,7.544 2.03,15.004 2.002,22.507c-0.074,14.065 -0.68,28.159 -0.743,42.253c-0.005,0.359 -0.005,0.359 -0.012,0.717c-0.222,7.891 -2.683,16.093 -0.169,23.475c5.394,16.216 0.508,34.978 0.935,51.95c0.175,6.932 2.464,13.782 4.865,20.451c0,0 0.742,5.228 0.886,9.828c0.24,7.662 0.624,15.332 -0.207,22.96c-0.255,2.332 -1.664,4.878 -2.266,5.431c-2.664,2.442 -5.39,2.018 -8.626,1.828c-0.813,-0.048 -6.594,0.03 -7.411,0c-9.558,-0.343 -14.672,-1.95 -24.051,-0.759c-2.727,0.345 -5.572,1.518 -8.634,1.75c-15.714,1.191 -31.725,-2.216 -47.574,-2.086c-1.838,0.015 -3.811,0.602 -5.609,0.89c-15.758,2.509 -31.94,0.741 -47.809,0.666c-21.785,-0.119 -43.55,-1.347 -65.403,-0.214c-0.609,0.031 -10.992,-0.275 -11.602,-0.247c-6.618,0.278 -3.538,1.316 -10.056,0.464c-0.568,-0.075 -0.668,-0.005 -1.946,-0.57l-1.156,-0.733c-0.318,-0.288 -0.608,-0.46 -1.375,-1.564l-0.803,-2.074c-0.483,-3.379 -0.021,-6.963 0.172,-10.505c1.143,-20.896 5.404,-41.992 1.139,-62.548c-5.771,-28.298 -0.584,-58.868 -1.232,-87.147c-0.151,-6.57 -0.962,-12.927 -3.541,-18.96c-1.738,-4.228 -1.699,-8.987 -1.709,-13.699c-0.021,-10.359 0.946,-20.651 1.34,-30.912c0.303,-5.707 2.586,-11.186 4.685,-16.692l0.509,-1.192c1.988,-3.253 2.617,-2.573 6.733,-2.549Zm217.978,11.551c-19.229,0.15 -37.704,3.855 -57.4,3.519c-23.319,-0.396 -46.45,-3.009 -69.885,-0.132c-29.253,3.59 -58.527,-2.588 -88.075,-3.283c-1.181,3.357 -2.488,6.78 -2.547,10.328c-0.256,12.401 -2.935,24.98 -0.858,37.055c0.119,0.697 0.118,0.77 0.787,2.306c4.868,11.44 4.149,24.559 3.809,36.763c-0.674,24.105 -3.444,48.267 1.52,72.172c4.38,21.595 -0.322,43.795 -1.357,66.228l0,0.504c24.711,0 25.455,-0.875 37.66,-0.743c21.044,0.227 41.968,0.381 63.36,0.992c9.883,0.268 19.588,0.085 29.323,-1.699c4.862,-0.809 9.939,-0.01 14.983,0.358c12.017,0.9 14.517,2.569 26.432,1.341c1.523,-0.157 9.136,-0.039 13.198,-0.671c3.95,-0.614 5.934,0.369 9.512,0.422c8.335,0.122 17.637,-0.191 25.937,0c0,0 0.513,-16.643 -0.295,-24.612c0,0 -2.544,-7.257 -3.893,-13.153c-4.063,-17.749 2.397,-36.687 -1.048,-55.917c-0.297,-1.654 -1.038,-3.904 -1.038,-3.904c-3.188,-9.877 -0.247,-21.261 -0.181,-31.234c0.107,-13.506 0.722,-27.017 0.733,-40.503c-0.047,-10.706 -4.538,-21.832 -1.307,-32.151c1.414,-4.519 1.188,-9.115 1.311,-14.846c0.01,-0.307 0.01,-0.306 0.023,-0.615c0.141,-3.147 0.32,-5.273 0.368,-8.421c0,0 -0.676,-0.105 -1.072,-0.104Z" style="fill:#f8bb00;"/><rect id="rep-26" x="0" y="0" width="26" height="26" style="fill:none;"/><rect id="rep-10" x="0" y="0" width="26" height="10" style="fill:none;"/><rect id="rep-13-16" x="0" y="0" width="16" height="13" style="fill:none;"/></g></svg>